<?xml version="1.0" encoding="UTF-8" standalone="no"?>
<!-- Created with Inkscape (http://www.inkscape.org/) -->

<svg
   width="1.398288in"
   height="0.66018748in"
   viewBox="0 0 35.516515 16.768762"
   version="1.1"
   id="svg1"
   inkscape:version="1.3.1 (91b66b0783, 2023-11-16)"
   sodipodi:docname="fretty_scalarino.svg"
   xmlns:inkscape="http://www.inkscape.org/namespaces/inkscape"
   xmlns:sodipodi="http://sodipodi.sourceforge.net/DTD/sodipodi-0.dtd"
   xmlns="http://www.w3.org/2000/svg"
   xmlns:svg="http://www.w3.org/2000/svg">
  <sodipodi:namedview
     id="namedview1"
     pagecolor="#ffffff"
     bordercolor="#000000"
     borderopacity="1"
     inkscape:showpageshadow="0"
     inkscape:pageopacity="0"
     inkscape:pagecheckerboard="false"
     inkscape:deskcolor="#505050"
     inkscape:document-units="mm"
     inkscape:zoom="4.5801235"
     inkscape:cx="63.972075"
     inkscape:cy="34.387719"
     inkscape:window-width="1920"
     inkscape:window-height="1111"
     inkscape:window-x="-9"
     inkscape:window-y="-9"
     inkscape:window-maximized="1"
     inkscape:current-layer="layer1" />
  <defs
     id="defs1">
    <inkscape:path-effect
       effect="roughen"
       id="path-effect1"
       is_visible="true"
       lpeversion="1.2"
       global_randomize="0.4;1"
       displace_x="0.15;1"
       displace_y="0.15;1"
       method="size"
       max_segment_size="0.202406"
       segments="2"
       handles="along"
       shift_nodes="true"
       fixed_displacement="false"
       spray_tool_friendly="false" />
  </defs>
  <g
     inkscape:label="Layer 1"
     inkscape:groupmode="layer"
     id="layer1"
     transform="translate(-89.958218,-131.23348)">
    <path
       id="path24"
       style="stroke-width:0.264583"
       d="m 62.453953,198.81374 c 0,-0.0488 -0.02305,-0.10853 -0.046,-0.14773 -0.03258,-0.0527 -0.01375,-0.0569 -0.04658,-0.0757 -0.03801,-0.0218 -0.1266,-0.0518 -0.178932,-0.0518 l -0.135644,-0.002 -0.121228,0.0145 0.0094,-0.18368 -0.01252,-0.21195 0.01839,-0.16402 -0.0036,-0.19602 0.0058,-0.18368 -0.0072,-0.19387 -0.0079,-0.18881 c -8.24e-4,-0.0352 -0.02089,-0.10487 -0.03428,-0.13668 -0.0134,-0.0318 -0.03061,-0.0468 -0.05536,-0.0715 -0.0249,-0.0249 -0.03545,-0.0383 -0.06461,-0.0462 -0.02916,-0.008 -0.07594,-0.01 -0.110995,-0.009 l -0.175168,8.2e-4 -0.174977,0.002 -0.128352,0.002 -0.233953,-0.0427 -0.168276,0.0207 -0.176863,0.0184 c -0.04934,-5.5e-4 -0.065,0.0247 -0.104459,0.0474 -0.01042,0.0359 -0.08337,0.0499 -0.114301,0.0876 -0.0289,0.0352 -0.04764,0.0784 -0.04764,0.1255 l -0.0037,0.18083 -0.0056,0.1891 -6.39e-4,0.1771 -6.98e-4,0.20647 0.0026,0.19211 -0.002,0.16093 0.04316,0.22919 -0.198987,0.004 -0.2001,0.006 -0.189835,-0.007 -0.249241,-0.032 -0.161659,0.012 -0.193599,-0.0387 -0.159533,0.0494 0.02258,-0.18881 -0.01257,-0.20065 0.01316,-0.16834 -0.01266,-0.20755 -0.0065,-0.18473 -0.01665,-0.22347 0.0012,-0.1686 c 0.0029,-0.0436 -0.01912,-0.1158 -0.04079,-0.15269 -0.03032,-0.0633 -0.0496,-0.0788 -0.08108,-0.0939 -0.03825,-0.0183 -0.08296,-0.0464 -0.136462,-0.0464 l -0.1768,-0.013 -0.175049,0.0125 -0.129468,0.0208 -0.20336,0.0127 -0.20047,-0.0471 -0.172128,0.0561 c -0.03451,9.5e-4 -0.0579,0.0168 -0.08952,0.0302 -0.03162,0.0134 -0.07314,0.0226 -0.09792,0.0474 -0.0248,0.0248 -0.01933,0.0618 -0.03211,0.094 -0.01278,0.0323 -0.04339,0.06 -0.04334,0.0951 l 0.02596,0.19499 -0.0053,0.18226 -0.01294,0.17593 0.01212,0.20967 -0.0024,0.18654 1.03e-4,0.1924 -0.0033,0.1922 -0.147793,0.009 -0.220301,-0.0331 -0.165355,0.006 -0.190101,-0.0123 -0.138275,0.0147 -0.179028,0.0181 -0.01088,-0.19932 -0.0137,-0.16671 0.01088,-0.17477 0.12063,-0.005 0.123677,-0.0377 c 0.04921,0.0136 0.09714,0.0111 0.136539,-0.006 0.04142,-0.0154 0.08257,-0.0411 0.105065,-0.0793 0.02245,-0.038 0.02052,-0.10303 0.02052,-0.15174 0,-0.0488 -0.01864,-0.1035 -0.04101,-0.14075 -0.02738,-0.0463 -0.01749,-0.0495 -0.05261,-0.0678 -0.03811,-0.0199 -0.120508,-0.0507 -0.171266,-0.0507 l -0.181417,-0.006 -0.170423,0.002 -0.173814,0.003 -0.167002,0.005 -0.197777,-0.0252 -0.164504,0.0135 c -0.04853,0.005 -0.05989,0.0339 -0.09899,0.0591 -0.0066,0.0383 -0.08551,0.0207 -0.117416,0.0596 -0.02927,0.0357 -0.04803,0.1094 -0.04803,0.15607 0,0.0365 0.0074,0.0726 0.02093,0.10565 0.01353,0.0331 0.06657,0.0768 0.09052,0.10071 0.02395,0.024 0.03929,0.0338 0.06261,0.0438 0.02332,0.01 0.07922,0.0332 0.115697,0.0332 l 0.116635,-0.0103 0.118461,-0.0493 -0.0098,0.17461 0.04526,0.21385 -0.0072,0.19668 -0.195921,0.002 -0.196345,0.001 -0.206384,7.5e-4 -0.20648,-0.006 -0.172423,-6.9e-4 c -0.06745,-0.001 -0.102594,0.0147 -0.162182,0.031 -0.03634,0.0258 -0.09477,0.0454 -0.151125,0.0801 -0.02095,0.0335 -0.06049,0.079 -0.106837,0.12449 0.0022,0.0487 -0.08148,0.0971 -0.12164,0.14678 -0.03714,0.0459 -0.07046,0.0917 -0.07706,0.14497 l -0.204464,-0.004 -0.203071,-0.01 -0.184766,0.0144 -0.21192,-0.003 -0.0095,0.14998 2.03e-4,0.19905 0.001,0.1779 -0.0053,0.16122 0.0053,0.19137 0.0087,0.17859 c -0.0013,0.0478 -0.02061,0.0868 -0.04412,0.12562 -0.02872,0.0326 -0.04469,0.0802 -0.08247,0.10446 -0.03813,0.0245 -0.08215,0.0402 -0.13114,0.0402 -0.0365,0 -0.055,0.003 -0.08933,-0.0129 -0.03433,-0.0155 -0.08478,-0.0495 -0.108721,-0.0735 -0.02395,-0.0239 -1.45e-4,-0.047 -0.01347,-0.0786 -0.01332,-0.0316 -0.0572,-0.0667 -0.0572,-0.10323 l -0.0055,-0.18246 -0.0015,-0.17323 -3.3e-4,-0.17638 0.0042,-0.17302 -0.0036,-0.18338 -0.002,-0.18196 -0.205186,-0.0185 -0.189952,0.009 -0.20097,0.007 -0.20096,-0.002 -0.0023,0.17501 0.03475,0.18667 -0.0083,0.16748 0.01122,0.19717 -0.02569,0.14348 0.03334,0.21394 c -0.01253,0.0443 -0.03261,0.0876 -0.06113,0.12481 -0.02719,0.0379 -0.06465,0.069 -0.105778,0.0913 -0.04084,0.0222 -0.08428,0.0356 -0.13288,0.0356 -0.0365,0 -0.07211,-0.008 -0.104368,-0.0215 -0.03225,-0.0135 -0.05549,-0.0275 -0.07944,-0.0515 -0.02395,-0.0239 -0.04381,-0.0529 -0.05862,-0.0858 -0.01481,-0.0329 -0.02567,-0.12498 -0.02567,-0.16146 l 4.96e-4,-0.16686 -0.0094,-0.18123 0.0076,-0.149 0.01787,-0.16257 -0.0118,-0.18058 -0.0072,-0.17358 -0.200586,-0.0154 -0.202214,-8.7e-4 -0.171129,0.0177 -0.213652,0.0102 0.0089,0.18351 0.03474,0.17811 -0.01876,0.15822 -0.01031,0.18401 -2.21e-4,0.17917 -0.0024,0.17901 c -0.0048,0.047 0.02066,0.0946 -0.0044,0.13299 0.01388,0.0459 -0.05163,0.089 -0.108942,0.11103 -0.04547,0.0175 -0.109727,0.0235 -0.152871,0.0235 -0.0365,0 -0.04944,0.003 -0.08431,-0.0123 -0.03487,-0.0153 -0.100055,-0.0593 -0.124,-0.0832 -0.02395,-0.0239 -0.0155,-0.0468 -0.02679,-0.076 -0.01129,-0.0292 -0.0534,-0.0903 -0.0534,-0.12676 l -0.006,-0.18344 0.01033,-0.1606 0.03032,-0.16958 -0.01016,-0.17969 -0.0028,-0.16381 -0.02136,-0.21624 -0.196305,0.01 -0.18806,0.017 -0.196269,0.0133 -0.210787,-0.009 0.0055,0.18147 -1.78e-4,0.17385 0.01269,0.18663 0.01804,0.1707 -0.02341,0.15865 -9.82e-4,0.19928 c -0.0012,0.0479 -0.0026,0.10254 -0.02609,0.14137 -0.01152,0.0494 -0.05151,0.072 -0.09543,0.0925 -0.04169,0.0194 -0.07507,0.0411 -0.12256,0.0411 -0.0365,0 -0.07954,-0.018 -0.117238,-0.0346 -0.0377,-0.0166 -0.07143,-0.0473 -0.09538,-0.0713 -0.02395,-0.0239 -0.04375,-0.0743 -0.0568,-0.10209 -0.01305,-0.0278 -0.0213,-0.0351 -0.0213,-0.0715 l 0.01232,-0.17106 0.0038,-0.17772 -0.0052,-0.21696 0.0054,-0.13412 -0.0078,-0.18156 -0.0192,-0.20218 -0.197888,-0.01 -0.192637,0.013 -0.19715,0.0104 -0.199712,0.006 0.0021,0.17807 0.0031,0.17771 0.0025,0.1772 0.0036,0.17851 0.01786,0.18858 -0.02397,0.14899 c 3.12e-4,0.0541 -0.01386,0.10197 -0.03666,0.14353 -0.02401,0.0402 -0.052,0.078 -0.09078,0.10188 -0.03889,0.0239 -0.09538,0.0248 -0.144211,0.0248 -0.0365,0 -0.06966,-0.005 -0.09931,-0.0158 -0.02965,-0.0107 -0.05295,-0.0247 -0.07689,-0.0486 -0.0346,-0.0346 -0.06731,-0.0943 -0.07861,-0.14371 l 0.0041,-0.18226 4.14e-4,-0.18564 -0.0057,-0.19223 0.0018,-0.17635 0.0061,-0.18015 -0.0015,-0.18774 0.0024,0.001 -0.166553,0.003 -0.208568,0.003 -0.203929,0.01 -0.221371,-0.014 -0.0018,0.15927 0.03423,0.20442 -0.01363,0.12955 0.0091,0.22282 0.02224,0.16723 -0.04758,0.17718 c -0.0018,0.0474 -0.0057,0.0937 -0.02941,0.1322 -0.01403,0.0413 -0.06127,0.0727 -0.104899,0.095 -0.0411,0.0211 -0.08904,0.006 -0.136355,0.006 -0.0365,0 -0.01458,9.5e-4 -0.04604,-0.006 -0.03146,-0.007 -0.124048,-0.0331 -0.147993,-0.0571 -0.02394,-0.024 -0.02391,-0.0391 -0.03536,-0.0678 -0.01146,-0.0287 -0.0376,-0.0751 -0.0376,-0.11154 l -1.6e-4,-0.17634 0.0071,-0.17089 0.0024,-0.17854 0.03984,-0.17597 -0.0308,-0.19361 -0.01595,-0.15936 -0.199113,-0.0112 -0.200973,-0.008 -0.196483,0.004 -0.191204,0.0168 -0.0021,0.17483 0.01633,0.17935 0.03086,0.18404 -0.01815,0.16247 -0.0205,0.17376 0.02329,0.1896 c -0.01151,0.0464 -0.0078,0.097 -0.0359,0.13514 -0.0054,0.0472 -0.0571,0.0821 -0.107428,0.10317 -0.04415,0.0185 -0.06924,0.0242 -0.114822,0.0242 -0.0365,0 -0.08635,-0.0146 -0.12824,-0.0291 -0.0419,-0.0145 -0.06137,-0.0186 -0.08531,-0.0426 -0.02395,-0.0239 -0.04615,-0.0544 -0.06317,-0.0888 -0.01701,-0.0344 0.0011,-0.0695 0.0011,-0.10603 l -2.52e-4,-0.17632 0.0252,-0.16582 -0.02398,-0.20588 -0.01345,-0.16414 0.01929,-0.16046 -0.03003,-0.18432 -0.201637,-0.029 -0.20475,-0.004 -0.196009,-2.7e-4 -0.197898,0.0294 0.02433,0.18227 -0.0096,0.16383 -0.01329,0.14628 -0.0097,0.17579 0.01672,0.2144 -0.01001,0.17382 c 3.27e-4,0.0492 0.01159,0.10947 -0.01121,0.14887 6.4e-5,0.056 -0.06846,0.0376 -0.117056,0.057 -0.04326,0.0172 -0.07856,0.0674 -0.124492,0.0674 -0.0365,0 -0.04127,-0.001 -0.07564,-0.0163 -0.03437,-0.0152 -0.07472,-0.0314 -0.09867,-0.0554 -0.02395,-0.024 -0.05243,-0.0595 -0.07173,-0.0945 -0.01929,-0.0349 -0.0027,-0.0602 -0.0027,-0.0967 l -0.01865,-0.20399 0.003,-0.151 -0.005,-0.18116 0.0048,-0.16944 -0.0051,-0.18364 -0.0075,-0.18152 -0.191214,0.005 -0.197559,0.001 -0.178246,0.007 -0.211993,-0.007 -0.0052,0.17018 -0.01139,0.1653 -0.0071,0.17606 0.0087,0.19369 7.53e-4,0.17393 -0.0026,0.16167 c 0.0012,0.0536 -0.01786,0.0915 -0.04026,0.13286 -0.0292,0.0306 -0.02981,0.0886 -0.06731,0.11479 -0.03731,0.0261 -0.111091,0.0217 -0.159736,0.0217 -0.0365,0 -0.06513,-0.004 -0.09519,-0.0149 -0.03006,-0.0109 -0.07165,-0.0491 -0.0956,-0.0731 -0.02394,-0.0239 -0.01205,-0.0396 -0.02291,-0.0662 -0.01087,-0.0266 -0.05669,-0.0979 -0.05669,-0.13441 l 0.02079,-0.16091 -0.0013,-0.18015 -0.01337,-0.20853 9.1e-5,-0.13659 0.0024,-0.18364 0.0057,-0.15394 -0.203992,-0.006 -0.203438,-0.01 -0.181893,0.0114 -0.20526,0.005 -7.18e-4,0.17563 0.0257,0.18771 -0.02078,0.14085 0.005,0.20239 -0.011,0.13041 0.0068,0.22525 c -0.0021,0.047 0.0039,0.0942 -0.01999,0.13265 -0.0048,0.0434 -0.06825,0.0721 -0.11614,0.0943 -0.04261,0.0197 -0.0915,0.029 -0.137419,0.029 -0.0365,0 -0.07989,-0.0457 -0.110869,-0.0582 -0.03097,-0.0124 -0.04986,0.008 -0.0738,-0.0159 -0.02395,-0.0239 -0.03961,-0.0497 -0.05292,-0.0814 -0.01331,-0.0317 -0.02367,-0.0691 -0.02367,-0.10553 l 0.01267,-0.17294 -0.01029,-0.1957 0.0069,-0.15633 0.04554,-0.17991 -0.03022,-0.18356 -0.02468,-0.16943 -0.187346,-0.0294 -0.168923,0.0199 -0.180506,0.013 -0.0032,-0.20475 0.0069,-0.19348 0.03075,-0.19464 9.94e-4,-0.20746 0.01578,-0.20333 -0.0118,-0.20861 0.02797,-0.18512 -0.01422,-0.21302 0.0083,-0.1861 -0.02577,-0.24294 -0.01337,-0.17078 -0.02323,-0.21678 -0.0046,-0.18023 c -2.3e-4,-0.0695 0.02485,-0.125 0.0114,-0.19037 0.01721,-0.0609 -0.0384,-0.14316 -0.06961,-0.20992 -0.02761,-0.0595 -0.07583,-0.14247 -0.114991,-0.19568 -0.04711,-0.0709 -0.07345,-0.0943 -0.112911,-0.13242 -0.04922,-0.0514 -0.09075,-0.0797 -0.143178,-0.11314 -0.05198,-0.0327 -0.08335,-0.0614 -0.146687,-0.0855 -0.03253,-0.0204 -0.151297,-0.06 -0.231186,-0.0729 -0.06858,-0.0111 -0.126561,-6.7e-4 -0.190646,-6.7e-4 l -0.203628,-0.0512 -0.200116,8e-4 -0.178124,0.004 -0.224011,0.002 -0.197141,0.006 -0.19534,0.007 -0.209328,0.005 -0.19348,0.01 -0.214331,3e-4 -0.183401,0.002 -0.227025,-0.0194 -0.18958,0.005 -0.216608,-0.0184 -0.15718,0.0114 -0.236386,0.001 -0.201924,8.3e-4 -0.202956,-0.009 -0.150359,0.006 -0.242273,0.009 -0.208696,0.002 -0.213221,-0.0136 -0.20398,-0.026 -0.188336,0.004 -0.204773,0.001 -0.202928,-9.2e-4 -0.202295,-0.002 -0.199898,-0.007 -0.211528,-0.0224 -0.191913,0.003 -0.192193,0.005 -0.214504,-4.7e-4 -0.208441,-0.0119 -0.178205,0.006 -0.208587,0.0101 -0.2127,-7.1e-4 -0.205301,-0.005 -0.202022,-0.0125 -0.145775,0.007 -0.243032,0.008 -0.201044,0.0103 -0.189164,0.0117 -0.22353,-0.003 -0.200598,-0.0338 -0.183373,0.0173 -0.21675,0.0101 -0.211433,-0.003 -0.196611,-0.003 -0.199567,0.009 -0.211689,-0.0131 -0.194791,0.009 -0.186954,0.0165 -0.185624,0.0161 -0.1809,0.01 -0.245307,0.0131 -0.18828,0.0158 -0.223347,-0.005 -0.174386,0.0146 c -0.07212,-10e-4 -0.15007,-0.005 -0.217481,0.008 -0.07414,0.002 -0.125746,0.0344 -0.186011,0.0588 -0.05847,0.0287 -0.121847,0.005 -0.176919,0.0416 -0.06385,-0.009 -0.108129,0.10502 -0.159959,0.16471 -0.02835,0.0589 -0.05051,0.1031 -0.08492,0.15904 -0.0048,0.059 -0.04691,0.13084 -0.07666,0.19328 -0.0054,0.0717 -0.06079,0.1086 -0.08349,0.16659 -0.02442,0.0624 -0.03735,0.1326 -0.03735,0.20031 l -2.69e-4,0.19702 -0.0074,0.18979 0.0316,0.21073 0.01936,0.20765 -0.003,0.18156 -7.04e-4,0.20225 0.04086,0.20444 0.02035,0.19588 -0.0075,0.18762 -0.01096,0.19482 -0.0012,0.20937 0.01077,0.20362 -0.0061,0.17902 0.02996,0.21183 -0.0039,0.19801 -0.0061,0.18593 0.0025,0.21534 -0.01494,0.17007 0.0056,0.22653 -0.0057,0.18871 0.01315,0.20837 -0.01853,0.16717 -0.0058,0.21458 -0.0084,0.18989 0.01069,0.21532 -0.01444,0.14988 -0.0039,0.24398 0.0059,0.19825 -0.0094,0.19032 0.0099,0.21556 0.02482,0.19559 -0.0161,0.18163 0.02293,0.21214 0.01472,0.20052 -0.0165,0.19782 -0.0156,0.19767 -0.01842,0.19404 -0.01572,0.19847 -0.02519,0.18682 -0.0043,0.21135 -0.02271,0.19123 c -7.5e-5,0.0692 0.0081,0.13741 0.02133,0.20258 0.01443,0.0655 0.05368,0.14036 0.07862,0.19986 0.04351,0.0664 0.03954,0.0858 0.06957,0.13335 0.02814,0.0409 0.08355,0.11696 0.132262,0.16721 0.04613,0.0473 0.124813,0.0871 0.175636,0.12291 0.07977,0.034 0.106999,0.0632 0.15374,0.0869 0.07161,0.0313 0.103006,0.0345 0.160576,0.0489 0.06045,0.0151 0.126119,0.0249 0.202246,0.0249 l 0.201302,-2.8e-4 0.201257,-0.002 0.19944,-0.003 0.231683,0.008 0.175001,1.4e-4 0.204438,0.003 0.191871,-0.0288 0.209137,8.2e-4 0.199307,-0.002 0.227194,0.006 0.173199,-0.006 0.200484,-0.0178 0.210523,0.002 0.200222,0.002 0.213904,0.0109 0.189082,9.4e-4 0.201463,-0.0542 0.20879,0.004 0.193267,-0.0159 0.211466,0.008 0.206968,0.011 0.188639,0.002 0.208133,0.007 0.194191,5.9e-4 0.199199,-0.007 0.227509,0.003 0.175408,-0.0108 0.210005,0.006 0.208387,0.009 0.192308,0.003 0.244547,0.005 0.206746,0.009 0.155682,0.004 0.198224,0.001 0.224472,0.0111 0.179748,0.002 0.201705,0.002 0.204266,0.004 0.238562,0.0134 0.204575,0.0119 0.158162,-0.002 0.198513,-0.0219 0.20544,-0.008 0.205376,0.005 0.203737,0.007 0.188423,-0.0109 0.204773,-0.0346 0.214957,0.0128 0.210835,0.017 0.186406,0.006 0.198332,0.002 0.221948,0.0178 0.191928,0.008 0.190602,-0.0422 0.205297,0.0154 0.199495,0.009 0.191117,0.009 c 0.0707,0.002 0.129846,-0.0208 0.196168,-0.0322 0.05744,-0.0299 0.138958,-0.0234 0.200625,-0.047 0.0661,-0.0165 0.112907,-0.0612 0.165331,-0.0941 0.05051,-0.0435 0.117819,-0.0607 0.162776,-0.10213 0.06236,-0.0329 0.08285,-0.0949 0.118212,-0.14651 0.03173,-0.0573 0.06556,-0.11244 0.09054,-0.17195 0.02363,-0.0628 0.05188,-0.11419 0.06513,-0.1784 0.01329,-0.0644 0.02455,-0.12865 0.02455,-0.19902 l 0.01066,-0.19221 0.01,-0.20253 -0.0083,-0.21737 -0.01039,-0.20506 -0.0041,-0.22591 0.0073,-0.16142 0.02398,-0.19315 0.0058,-0.20376 -0.01238,-0.21311 -0.01243,-0.2064 0.0119,-0.18005 -0.01915,-0.21661 0.02101,-0.18702 0.199114,7.4e-4 0.194782,-0.0168 0.226918,0.0137 0.173175,0.002 0.21268,0.0106 0.186563,0.004 0.219579,0.011 0.210974,0.002 0.164554,0.003 0.181576,-0.0367 0.206335,-0.003 0.199642,-0.001 0.186301,-0.0219 0.21967,0.005 0.183566,-0.0153 0.202121,-0.001 0.186919,-0.0347 0.204964,-0.005 0.226563,0.0154 0.178994,0.006 0.192729,0.001 0.197218,-9.2e-4 0.21272,0.0123 0.183728,-0.0329 0.190195,-0.014 0.20825,-0.007 0.244162,0.0155 0.165756,0.015 0.191061,0.0117 0.188795,-0.008 0.222524,0.0222 0.191587,0.009 0.182117,-0.0146 0.195667,-0.0328 0.20247,0.0328 0.208871,0.0529 0.220355,0.0109 0.16891,-0.0153 0.217219,0.004 0.193406,-0.0587 0.194996,-0.0392 0.198619,-0.008 0.205714,-0.001 0.207776,0.006 0.19064,-0.001 0.207189,0.006 0.211305,0.006 0.176241,-0.0368 0.211541,0.006 0.19324,-0.024 0.206491,0.006 0.191063,-0.007 0.209553,0.006 0.195031,7.2e-4 0.219178,0.01 0.176839,-0.0268 0.213627,0.0125 0.241487,0.0161 0.14931,-0.004 0.232902,0.0208 0.19124,0.0176 0.179561,0.007 0.226049,0.0218 0.194991,0.0119 0.177571,0.006 0.232989,0.0114 0.172529,0.012 0.192407,0.006 0.195622,-0.0101 c 0.01075,0.076 0.01711,0.10802 0.04613,0.16979 0.02902,0.0618 0.07724,0.14845 0.125311,0.19653 0.03792,0.0379 0.06907,0.0544 0.114888,0.0814 0.03657,0.0119 0.08855,0.0302 0.14512,0.0488 0.05153,0.017 0.114595,0.0272 0.165665,0.0272 l 0.186199,-0.001 0.219383,0.0103 0.158948,-0.003 0.186689,-0.005 0.193232,-0.0403 0.235931,0.009 0.145131,0.006 0.184019,0.004 0.17684,-0.0192 0.206856,0.0151 0.181271,-0.0105 0.192693,0.0165 0.193998,0.0239 0.217954,0.0247 0.07181,0.19991 0.03929,0.15701 0.05401,0.16618 0.05523,0.19497 0.06219,0.22205 0.06839,0.19762 0.05039,0.1793 0.07498,0.19993 0.04052,0.17146 0.04709,0.19222 0.05329,0.19447 0.05997,0.19369 0.02112,0.17826 c 0.01898,0.0583 0.05694,0.10778 0.101947,0.14157 0.04501,0.0338 0.106591,0.0572 0.16505,0.0571 l 0.163908,-0.016 0.186766,0.003 0.16387,-0.013 0.196251,0.0123 0.151814,-0.0333 0.20766,0.0539 c 0.02447,-0.006 0.09155,-0.003 0.120642,-0.0179 0.02909,-0.0148 0.01221,-0.0663 0.03699,-0.091 0.0248,-0.0248 0.05823,-0.0416 0.07342,-0.0685 0.0152,-0.0269 0.03644,-0.058 0.03634,-0.0931 l 0.0062,-0.19882 0.0052,-0.20293 0.02925,-0.19704 -0.0098,-0.22038 -7.21e-4,-0.1919 -0.0077,-0.24479 -0.01145,-0.1731 -0.0039,-0.19814 -0.0036,-0.20165 -0.01654,-0.21902 -0.0034,-0.18371 0.0036,-0.19957 -0.01058,-0.21659 0.01288,-0.18765 -0.006,-0.24267 -0.0083,-0.17384 0.0036,-0.19385 0.165285,-0.0434 0.182986,0.0161 0.17117,0.003 0.0061,0.20678 -0.002,0.17867 -0.0097,0.21257 -0.0054,0.20432 0.0092,0.22298 0.0092,0.19758 0.01246,0.21238 0.04476,0.19947 0.0032,0.20627 -0.0066,0.19962 -0.01978,0.16609 0.0043,0.24234 -0.005,0.203 0.0097,0.21073 0.0059,0.20074 0.0071,0.21238 -0.03133,0.19802 c -0.01277,0.0316 -0.025,0.0275 -0.01481,0.058 0.0102,0.0304 0.04143,0.0924 0.06538,0.11636 0.02395,0.024 0.05395,0.045 0.08596,0.0591 0.03201,0.0141 0.05142,-0.006 0.0879,-0.006 l 0.221813,0.0147 0.203358,0.0134 0.18118,-1.9e-4 0.198389,-0.0235 c 0.06417,0.0113 0.123257,-0.006 0.169568,-0.0401 0.04631,-0.0341 0.07219,-0.10028 0.08528,-0.16128 l 0.03872,-0.20364 0.03888,-0.18785 0.04101,-0.1942 0.04326,-0.19209 0.04951,-0.18924 0.04623,-0.19731 0.04004,-0.19576 0.04624,-0.19189 0.07582,-0.18059 0.05281,-0.19941 0.06157,-0.18122 0.03249,-0.209 0.03053,-0.19688 0.03902,-0.18927 0.0277,-0.2261 0.03742,-0.16495 0.01935,-0.22461 0.07247,-0.1653 0.0026,-0.21382 c 0.0103,-0.004 0.0023,-0.0436 0.0023,-0.0623 l 0.0078,-0.19298 0.03957,-0.19514 -0.0083,-0.2292 -0.01448,-0.20068 -0.0081,-0.1737 0.0045,-0.18405 0.01459,-0.19695 0.0139,-0.19292 -0.01672,-0.23283 -0.0065,-0.16938 -0.0049,-0.19322 z m -1.066276,-1.3439 0.04549,0.20337 -0.0071,0.17382 -0.0089,0.17437 0.0055,0.18393 -0.0036,0.17816 -0.02415,0.16442 -0.126839,0.011 -0.161024,0.003 -0.234618,-0.008 0.01274,-0.16663 -0.0083,-0.1955 -0.0022,-0.16815 0.0095,-0.1745 -0.01114,-0.18312 -0.01598,-0.20312 0.208077,0.0134 0.156989,0.0123 z m -2.107218,1.61028 -0.0017,0.18579 0.0028,0.19931 0.0037,0.19501 -0.0097,0.14289 0.0047,0.24056 -0.0046,0.18222 0.0015,0.20114 -0.0038,0.18605 0.0012,0.19712 0.0203,0.20206 0.02965,0.19397 -0.01511,0.16179 -0.0049,0.22961 -0.01476,0.18845 -0.0016,0.21131 0.0044,0.22083 0.0049,0.19946 -0.0091,0.19014 0.0017,0.21417 0.01716,0.21162 -0.0092,0.15635 -0.01407,0.19892 0.0022,0.24029 0.02511,0.21379 -0.0095,0.16105 -0.01058,0.21706 -0.01447,0.19341 0.0053,0.22237 -0.195532,6.4e-4 -0.201521,0.002 -0.207414,-0.0295 -0.064,-0.1989 -0.0398,-0.17218 -0.05586,-0.19033 -0.0514,-0.1833 -0.01632,-0.18876 -0.02612,-0.19621 -0.07791,-0.21177 -0.06116,-0.17187 -0.06781,-0.18513 -0.02805,-0.17918 -0.08785,-0.20496 -0.06491,-0.16952 -0.06323,-0.16569 c -0.03045,-0.0622 -0.08488,-0.14839 -0.132768,-0.18299 -0.04789,-0.0346 -0.06016,-0.0149 -0.118545,-0.0149 l -0.185391,0.005 -0.200098,-0.0149 -0.184929,0.003 -0.196546,-0.003 -0.196961,-0.0117 -0.191331,-0.0121 -0.189801,-0.007 -0.179691,0.009 -0.20087,-0.003 -0.180048,0.008 -0.199408,0.002 -0.188708,0.005 -0.194343,-0.009 -0.188655,0.004 -0.189752,0.004 c -0.05011,0.0186 -0.06222,0.001 -0.06222,-0.0494 l -0.0049,-0.19094 0.0053,9.8e-4 -0.02096,-0.20945 c 0.0093,-0.009 0.0051,-0.0498 0.01903,-0.0633 0.0134,-0.0134 0.03441,-0.012 0.05481,-0.0121 l 0.189457,-0.004 0.206558,0.0113 0.162594,-0.0169 0.197954,-0.0109 0.217793,0.004 0.164346,0.003 0.178689,-0.018 0.192974,-0.0219 0.212326,0.0135 0.180975,0.01 0.173251,-0.0335 0.206105,0.0214 0.183772,0.015 0.199492,0.0225 0.184315,0.0219 c 0.03278,-0.001 0.06563,-0.009 0.09682,-0.023 0.03119,-0.0135 0.09464,-0.0192 0.119428,-0.044 0.0248,-0.0248 0.04752,-0.0514 0.05223,-0.0866 0.0047,-0.0351 -0.01722,-0.094 -0.01727,-0.12908 l -0.0023,-0.16699 0.017,-0.15196 -0.01545,-0.18741 0.0043,-0.14969 0.01517,-0.154 -0.0034,-0.17234 0.0013,-0.15916 -0.0075,-0.17341 c 0,-0.0318 -0.01539,-0.0987 -0.02854,-0.12961 -0.01315,-0.0309 0.0028,-0.0177 -0.02213,-0.0426 -0.0245,-0.0245 -0.06617,-0.0525 -0.104484,-0.0676 -0.03831,-0.0151 -0.07048,-0.0151 -0.105087,-0.0155 -7.5e-4,0 -0.01626,-0.0288 -0.01736,-0.0293 l -0.174085,0.004 -0.177596,0.003 -0.186435,-0.0287 -0.150744,0.0126 -0.192201,0.008 -0.16406,0.0173 -0.180881,0.01 -0.133224,0.009 -0.188703,-0.007 -0.159594,0.002 -0.210449,-0.0339 -0.158007,0.0143 -0.200291,0.004 -0.154994,0.005 -0.215595,-0.0169 -0.17289,0.0282 c -0.04531,-0.003 -0.0342,-0.0358 -0.0344,-0.076 l -0.05317,-0.20692 0.0071,-0.18158 c 0.0023,-0.0347 0.03208,-0.071 0.07268,-0.0712 l 0.216866,0.002 0.156144,-0.009 0.194501,2.7e-4 0.185969,-0.004 0.184961,-0.009 0.195664,-0.006 0.192539,0.004 0.185348,-0.0225 0.187294,-0.006 0.207683,0.01 0.17201,8.3e-4 0.198628,0.0139 0.197351,0.0176 0.175319,0.004 0.201828,0.0128 c 0.04474,-0.002 0.08605,-0.0177 0.123459,-0.0413 0.03566,-0.0254 0.06459,-0.0617 0.08749,-0.10048 0.02301,-0.039 0.04686,-0.0742 0.04686,-0.12308 l -0.0012,-0.19025 0.01801,-0.18269 -0.01012,-0.21447 0.017,-0.16071 -0.01114,-0.20337 0.0012,-0.17884 -0.02638,-0.20913 0.200281,0.0164 0.149235,-0.0158 0.187312,-0.0427 9.55e-4,0.19742 0.0025,0.19841 -5.6e-5,0.19473 -0.0037,0.19149 -0.01058,0.18088 0.0026,0.21168 0.0066,0.19751 c 6.21e-4,0.0483 0.03896,0.10531 0.06277,0.14519 0.04535,0.0465 0.043,0.0616 0.07139,0.0823 0.03543,0.0258 0.06851,0.0203 0.120431,0.0203 l 0.206765,0.009 0.145884,-0.0443 z m -20.906032,1.39801 -0.0018,0.17575 c -0.0049,0.0642 -0.01007,0.13013 -0.02135,0.19236 -0.0082,0.0643 0.0019,0.1329 -0.01527,0.19239 0.0099,0.071 -0.02965,0.12508 -0.05316,0.18287 -0.01539,0.0639 -0.05183,0.0926 -0.08144,0.14794 -0.03402,0.0385 -0.06292,0.12518 -0.102267,0.18278 -0.02957,0.0566 -0.07335,0.10217 -0.113885,0.15088 -0.04029,0.0486 -0.07416,0.10148 -0.119299,0.14672 -0.03649,0.0517 -0.09961,0.0707 -0.149826,0.11266 -0.05676,0.0236 -0.110236,0.0669 -0.165126,0.10564 -0.05987,0.0215 -0.117159,0.0422 -0.173792,0.0766 -0.06621,0.003 -0.08034,0.0796 -0.140487,0.11179 -0.02898,0.0457 -0.110559,0.0719 -0.180302,0.10186 -0.04429,0.0331 -0.134452,0.0546 -0.205462,0.0778 -0.06396,0.0213 -0.13634,0.0208 -0.203526,0.0372 -0.07272,-0.003 -0.136891,0.0191 -0.204398,0.0332 -0.07205,0.001 -0.139349,-0.001 -0.208151,0.0111 -0.07138,0.0127 -0.132892,0.0558 -0.20433,0.0559 -0.07247,0 -0.132483,0.004 -0.203343,-0.001 -0.06339,0.001 -0.158974,-0.0479 -0.232042,-0.0597 -0.07304,-0.0434 -0.119336,-0.0169 -0.180855,-0.0312 -0.06229,-0.0103 -0.144092,-0.0599 -0.210365,-0.0809 -0.06639,-0.0439 -0.125222,-0.0528 -0.181675,-0.0749 -0.0657,-0.0361 -0.104316,-0.0406 -0.158571,-0.0662 -0.0532,-0.0233 -0.0694,-0.0546 -0.127251,-0.0876 -0.01652,-0.0336 -0.136,-0.0823 -0.199928,-0.12687 -0.05198,-0.0367 -0.111719,-0.0907 -0.15905,-0.12905 -0.05462,-0.0531 -0.09726,-0.0924 -0.136615,-0.12896 -0.05252,-0.0584 -0.06929,-0.068 -0.104449,-0.10537 -0.03692,-0.0414 -0.09305,-0.1128 -0.131003,-0.16128 -0.04215,-0.0617 -0.0482,-0.0738 -0.07658,-0.11705 -0.02043,-0.0438 -0.06974,-0.11601 -0.09928,-0.17374 -0.02755,-0.0571 -0.02195,-0.0988 -0.04264,-0.15254 0.0054,-0.0536 -0.05416,-0.14888 -0.07394,-0.21172 -0.02501,-0.0805 -0.04063,-0.12061 -0.0494,-0.16782 -0.01065,-0.0573 0.03607,-0.0839 0.03607,-0.1524 3e-6,-0.0624 0.0055,-0.12212 0.01165,-0.18316 0.0086,-0.0595 0.02943,-0.11914 0.04163,-0.17907 0.02596,-0.0558 0.03699,-0.11137 0.05447,-0.16856 0.02776,-0.0518 0.05318,-0.10629 0.07599,-0.16183 0.03785,-0.0469 0.03718,-0.15094 0.06443,-0.20361 0.01226,-0.0858 0.04547,-0.0989 0.07119,-0.14049 0.02888,-0.0614 0.05637,-0.10631 0.09068,-0.15204 0.03001,-0.0583 0.07295,-0.0957 0.113467,-0.14006 0.04052,-0.0474 0.09248,-0.085 0.138962,-0.12687 0.05245,-0.0367 0.09562,-0.0807 0.145847,-0.11831 0.05169,-0.0372 0.09021,-0.0942 0.144507,-0.12782 0.04242,-0.0548 0.108275,-0.071 0.167554,-0.0999 0.05527,-0.0344 0.129908,-0.0503 0.19327,-0.0738 0.069,-0.0175 0.110909,-0.0794 0.173427,-0.0971 0.05567,-0.056 0.134646,-0.0318 0.20433,-0.0419 0.06805,-0.009 0.140029,-0.0145 0.209979,-0.0188 0.07224,-0.002 0.129659,-0.0156 0.198906,-0.0171 0.07055,-0.002 0.14774,-0.0462 0.220598,-0.0462 0.0753,1.5e-4 0.142804,-0.005 0.216329,0.002 0.06932,-0.002 0.153715,0.0182 0.227816,0.0314 0.07283,0.0141 0.131053,0.004 0.199425,0.0221 0.06525,-0.004 0.146998,0.0231 0.218462,0.0494 0.06868,0.006 0.136362,0.0534 0.202416,0.085 0.0629,0.0296 0.129778,0.0661 0.190055,0.10169 0.06222,0.037 0.110666,0.0637 0.1653,0.10247 0.05372,0.0337 0.110786,0.0644 0.164277,0.10999 0.05259,0.0272 0.135831,0.10869 0.186205,0.16068 0.06793,0.0535 0.07879,0.0847 0.115092,0.12871 0.04246,0.0515 0.09299,0.11072 0.129742,0.16497 0.0461,0.058 0.07696,0.11061 0.106315,0.16406 0.04002,0.0613 0.06027,0.11288 0.08404,0.16885 0.02852,0.0619 0.03489,0.092 0.05313,0.15195 0.0091,0.0416 0.02761,0.12382 0.04251,0.19769 0.0021,0.0492 0.02761,0.13556 0.03817,0.20576 0.0099,0.0661 0.01294,0.12277 0.01464,0.18313 z m -4.673975,3.96409 c -10e-7,0.0594 -0.0092,0.11936 -0.03098,0.17079 -0.02005,0.0531 -0.05439,0.0967 -0.09356,0.13532 -0.04008,0.0377 -0.08683,0.0663 -0.138268,0.088 -0.05146,0.0218 -0.08697,0.0476 -0.146333,0.0476 -0.05936,0 -0.122512,-0.0189 -0.175798,-0.0416 -0.05674,-0.0281 -0.107731,-0.0721 -0.147373,-0.10938 -0.04887,-0.0565 -0.0375,-0.0659 -0.05856,-0.10951 -0.02395,-0.0496 -0.04175,-0.10768 -0.04175,-0.17199 0,-0.0594 0.0095,-0.11741 0.02879,-0.16955 0.01839,-0.0531 0.04778,-0.099 0.0835,-0.13867 0.036,-0.0395 0.103324,-0.0718 0.152445,-0.0941 0.04906,-0.0223 0.07948,-0.0353 0.138827,-0.0353 0.05936,0 0.114598,-0.0196 0.166055,0.002 0.05559,-0.008 0.136511,0.0694 0.178028,0.1196 0.06262,0.046 0.05507,0.0874 0.06791,0.137 0.0141,0.0544 0.01705,0.11073 0.01705,0.16957 z m -1.324497,-0.0357 c -10e-7,0.0594 -0.0116,0.14357 -0.03336,0.19501 -0.02453,0.0428 -0.01735,0.10241 -0.05721,0.1434 -0.0044,0.044 -0.102569,0.0767 -0.168145,0.0991 -0.05571,0.0191 -0.117269,0.0271 -0.171143,0.0271 -0.05936,0 -0.124282,-0.0264 -0.175476,-0.0479 -0.05582,-0.0344 -0.0848,-0.0434 -0.120355,-0.076 -0.03638,-0.0344 -0.07686,-0.10884 -0.09981,-0.1616 -0.02187,-0.0503 -0.01387,-0.0755 -0.01387,-0.13561 0,-0.0594 0.02576,-0.1058 0.04584,-0.1578 0.0348,-0.0412 0.04687,-0.1002 0.08102,-0.14122 0.03369,-0.0416 0.123527,-0.0709 0.170715,-0.0948 0.04815,-0.0243 0.04182,-0.0802 0.101985,-0.0802 0.05936,0 0.124156,0.02 0.176768,0.0453 0.05802,0.0299 0.114779,0.0696 0.153181,0.11017 0.05777,0.0526 0.10486,0.0922 0.122877,0.14182 0.01965,0.0541 -0.01303,0.0701 -0.01303,0.1332 z m -1.327868,0.0282 c -10e-7,0.0594 0.0087,0.13403 -0.01301,0.18546 -0.009,0.0611 -0.04069,0.10449 -0.0825,0.14246 -0.02732,0.0447 -0.09821,0.0661 -0.15773,0.0847 -0.05479,0.0171 -0.112227,0.027 -0.168649,0.027 -0.05936,0 -0.10042,-0.005 -0.151897,-0.0271 -0.03943,-0.0165 -0.109073,-0.0684 -0.152107,-0.11215 -0.04011,-0.0476 -0.05495,-0.0734 -0.07664,-0.11913 -0.02388,-0.0504 -0.05833,-0.12327 -0.05834,-0.18339 -1e-6,-0.0594 0.02792,-0.11462 0.05048,-0.16498 0.03684,-0.0474 0.04558,-0.0967 0.08086,-0.1331 0.03335,-0.0452 0.0893,-0.0664 0.141985,-0.0867 0.05177,-0.02 0.143535,-0.0296 0.203775,-0.0296 0.05936,-1e-5 0.112176,0.0103 0.160001,0.0316 0.04695,0.0201 0.07878,0.0179 0.113254,0.057 0.02572,0.007 0.06718,0.10062 0.08842,0.16718 0.01754,0.055 0.0221,0.10726 0.0221,0.1607 z m -2.18065,-5.22683 -0.008,0.19038 -0.0062,0.18028 -0.0013,0.19572 -0.0086,0.17816 -0.0081,0.16939 -0.0044,0.2144 -0.0118,0.18053 7.53e-4,0.19675 -0.002,0.15243 0.01904,0.2469 7.64e-4,0.1852 -0.0068,0.17985 0.0049,0.20302 0.02332,0.1917 c -0.02259,0.0646 -0.09173,0.0888 -0.159428,0.0888 l -0.149039,0.0181 -0.120544,0.008 -0.191781,0.006 c -0.08555,-0.002 -0.101041,-0.0544 -0.101041,-0.1222 l -0.02786,-0.11753 -0.01285,-0.0975 c -0.02568,1.5e-4 -0.05084,-0.011 -0.07484,-0.0303 -0.02398,-0.0202 -0.04946,-0.0539 -0.07098,-0.0899 -0.02366,-0.0416 -0.02589,-0.0754 -0.04382,-0.12373 -0.0049,-0.0507 -0.0477,-0.12773 -0.06445,-0.1936 -0.02503,-0.0755 -0.02773,-0.1227 -0.03814,-0.18955 -0.01132,-0.0739 -0.02262,-0.16322 -0.02837,-0.24645 -0.0056,-0.0813 -7e-5,-0.15385 -7.7e-5,-0.24398 -5e-6,-0.0885 0.0027,-0.17526 0.0082,-0.25792 0.0053,-0.0831 0.03975,-0.16067 0.05005,-0.23506 0.03642,-0.0724 0.06532,-0.13602 0.07795,-0.19924 0.05652,-0.0575 0.03646,-0.11164 0.04789,-0.16336 0.02446,-0.0445 0.01791,-0.108 0.02981,-0.14819 0.0062,-0.0424 0.02467,-0.065 0.04073,-0.0853 0.0183,-0.0231 0.0671,-0.0259 0.09489,-0.0261 l 3.71e-4,-0.10259 -0.03695,-0.16416 c 0.0093,-0.0221 0.05859,-0.0836 0.12629,-0.0836 l 0.162185,-0.0141 0.170759,0.01 0.184226,0.0226 c 0.04958,-0.0114 0.135505,0.0482 0.135505,0.11592 z"
       inkscape:path-effect="#path-effect1"
       inkscape:original-d="m 62.455354,198.81596 c 0,-0.1463 -0.11828,-0.26459 -0.26458,-0.26459 h -0.26459 v -1.32291 c 0,-0.0703 -0.02801,-0.1375 -0.07751,-0.18707 -0.0498,-0.0498 -0.11695,-0.0777 -0.18707,-0.0775 h -1.05833 c -0.14631,1e-5 -0.26459,0.11828 -0.26459,0.26459 v 1.32291 h -0.79375 l -0.52968,5.2e-4 5.2e-4,-1.32343 c 0,-0.1463 -0.11829,-0.26459 -0.26459,-0.26459 h -1.05833 c -0.0703,0 -0.1375,0.0279 -0.187071,0.0775 -0.0496,0.0496 -0.07761,0.11694 -0.07751,0.18707 v 1.32343 h -1.05834 l -5.1e-4,-0.52968 h 0.26458 c 0.14631,-1e-5 0.26458,-0.11829 0.26458,-0.26459 0,-0.14631 -0.11827,-0.26459 -0.26458,-0.26458 l -1.05833,5.2e-4 c -0.1463,0 -0.26459,0.11828 -0.26459,0.26458 0,0.073 0.02962,0.13918 0.07752,0.18707 0.0479,0.0479 0.11411,0.0775 0.18707,0.0775 h 0.26458 v 0.52969 l -0.98444,-5.2e-4 c -0.30701,1.8e-4 -0.55899,0.23186 -0.59582,0.52917 h -0.80099 l 5.2e-4,1.05833 c 0,0.1463 -0.11829,0.26458 -0.26459,0.26458 -0.073,0 -0.13917,-0.0296 -0.18706,-0.0775 -0.0479,-0.0479 -0.07752,-0.1141 -0.07752,-0.18707 l -5.2e-4,-1.05833 h -0.79375 l 5.19e-4,1.05833 c 0,0.1463 -0.118269,0.26458 -0.264579,0.26458 -0.073,0 -0.13917,-0.0296 -0.18707,-0.0775 -0.0479,-0.0479 -0.07752,-0.1141 -0.07752,-0.18707 l -5.1e-4,-1.05833 h -0.79324 v 1.05781 c 0,0.1463 -0.11828,0.26459 -0.26458,0.26459 -0.073,0 -0.13918,-0.0291 -0.18707,-0.077 -0.0479,-0.0479 -0.07751,-0.11462 -0.07751,-0.18759 v -1.05781 h -0.79479 l 5.2e-4,1.05833 c 10e-6,0.14631 -0.11828,0.26459 -0.26458,0.26458 -0.073,0 -0.13917,-0.0296 -0.18707,-0.0775 -0.0479,-0.0479 -0.07752,-0.1141 -0.07752,-0.18707 l -5.1e-4,-1.05833 h -0.79324 v 1.05781 c 0,0.1463 -0.11828,0.26458 -0.26458,0.26459 -0.073,0 -0.139181,-0.0291 -0.18707,-0.077 -0.0346,-0.0346 -0.05898,-0.0788 -0.07028,-0.12816 v -1.11724 h -0.0072 -0.79375 v 1.05833 c 0,0.1463 -0.11829,0.26407 -0.264591,0.26407 -0.073,0 -0.139179,-0.0291 -0.187069,-0.077 -0.04789,-0.0479 -0.07751,-0.11462 -0.07751,-0.18759 v -1.05781 h -0.79323 v 1.05781 c 0,0.1463 -0.11828,0.26458 -0.26459,0.26459 -0.073,0 -0.13917,-0.0291 -0.18706,-0.077 -0.0479,-0.0479 -0.07752,-0.11462 -0.07752,-0.18759 v -1.05781 l -0.79427,-5.2e-4 v 1.05833 c 0,0.1463 -0.11828,0.26459 -0.26458,0.26459 -0.073,0 -0.13917,-0.0296 -0.18707,-0.0775 -0.0479,-0.0479 -0.07751,-0.1141 -0.07751,-0.18707 v -1.05833 l -0.79375,5.2e-4 v 1.05781 c 0,0.14631 -0.11829,0.26459 -0.264591,0.26459 -0.073,0 -0.139169,-0.0291 -0.187069,-0.077 -0.04789,-0.0479 -0.07751,-0.11461 -0.07751,-0.18759 v -1.05781 l -0.79427,-5.2e-4 5.2e-4,1.05833 c 0,0.1463 -0.11828,0.26458 -0.26458,0.26459 -0.073,0 -0.13918,-0.0291 -0.18707,-0.077 -0.0479,-0.0479 -0.07752,-0.11462 -0.07752,-0.18759 l -5.1e-4,-1.05833 h -0.54312 v -2.60449 c 0,-0.554 -0.44594,-0.99994 -0.99994,-0.99994 h -11.49387 c -0.554,0 -0.99994,0.44594 -0.99994,0.99994 v 8.12043 c 0,0.554 0.44594,0.99994 0.99994,0.99994 h 11.49387 c 0.554,0 0.99994,-0.44594 0.99994,-0.99994 v -2.60501 h 7.16493 6.61459 c 0.0161,0.1328 0.07335,0.25576 0.1695,0.35192 0.11375,0.11375 0.26562,0.17745 0.42633,0.17725 l 2.64015,-5.2e-4 0.73742,2.45773 c 0.0337,0.11188 0.13629,0.1888 0.253209,0.18862 h 1.058341 c 0.0704,-7e-5 0.1375,-0.0285 0.18707,-0.078 0.0496,-0.0496 0.07771,-0.11643 0.07751,-0.18655 l -5.2e-4,-3.43958 0.52969,5.1e-4 v 3.43907 c 0,0.073 0.02961,0.13917 0.07751,0.18707 0.0479,0.0479 0.1141,0.0775 0.18707,0.0775 h 0.79375 c 0.12474,-5.7e-4 0.23272,-0.0873 0.2589,-0.20929 l 0.79427,-3.70416 c 0.004,-0.0183 0.0057,-0.0371 0.0057,-0.0558 z m -1.05833,-1.32292 v 1.05833 h -0.15141 -0.37776 v -1.05833 z m -2.11667,1.58698 v 2.11615 3.43907 l -0.59686,0.002 -0.73743,-2.45773 c -0.0337,-0.11189 -0.13643,-0.18814 -0.25321,-0.1881 h -2.83704 c -0.0505,0 -0.07389,-0.0229 -0.07389,-0.0734 v -0.19121 -5.1e-4 -0.19069 c 0,-0.0202 0.0078,-0.0387 0.0217,-0.0522 0.0134,-0.0134 0.03128,-0.0211 0.05168,-0.0212 h 2.83703 c 0.0703,0 0.13749,-0.0279 0.18707,-0.0775 0.0496,-0.0496 0.07762,-0.11694 0.07752,-0.18707 l 5.1e-4,-0.66198 v -0.66146 c 0,-0.0703 -0.02771,-0.1373 -0.07751,-0.18707 -0.049,-0.049 -0.11631,-0.0762 -0.18552,-0.077 -7.5e-4,0 -10e-4,4e-5 -0.0021,-5.2e-4 h -1.41851 -1.41852 c -0.0405,0 -0.0737,-0.0337 -0.0739,-0.0739 l 5.2e-4,-0.19068 v -0.19172 c 0,-0.0404 0.03278,-0.0732 0.07338,-0.0734 h 2.83703 c 0.1463,0 0.26459,-0.11829 0.26459,-0.26459 v -1.32291 h 0.52968 v 1.32291 c 0,0.14029 0.12377,0.26457 0.26407,0.26459 z m -20.9026,1.40715 -5.2e-4,0.19276 a 2.3619947,2.0345893 0 0 1 -2.35541,1.89084 2.3619947,2.0345893 0 0 1 -2.36213,-2.03451 2.3619947,2.0345893 0 0 1 2.36213,-2.0345 2.3619947,2.0345893 0 0 1 2.35593,1.98541 z m -4.6762,3.95687 a 0.42994791,0.42994791 0 0 1 -0.42995,0.42994 0.42994791,0.42994791 0 0 1 -0.429951,-0.42994 0.42994791,0.42994791 0 0 1 0.429951,-0.42995 0.42994791,0.42994791 0 0 1 0.42995,0.42995 z m -1.322921,0 a 0.42994791,0.42994791 0 0 1 -0.429939,0.42994 0.42994791,0.42994791 0 0 1 -0.42995,-0.42994 0.42994791,0.42994791 0 0 1 0.42995,-0.42995 0.42994791,0.42994791 0 0 1 0.429939,0.42995 z m -1.322909,0 a 0.42994791,0.42994791 0 0 1 -0.42995,0.42994 0.42994791,0.42994791 0 0 1 -0.42995,-0.42994 0.42994791,0.42994791 0 0 1 0.42995,-0.42995 0.42994791,0.42994791 0 0 1 0.42995,0.42995 z m -2.21951,-5.24154 v 2.66702 c 0,0.0677 -0.05477,0.12247 -0.12247,0.12247 h -0.49351 c -0.06777,0 -0.12247,-0.0547 -0.12247,-0.12247 v -0.21136 a 0.32857424,1.1222075 0 0 1 -0.32815,-1.1219 0.32857424,1.1222075 0 0 1 0.32815,-1.12241 v -0.21135 c 0,-0.0677 0.05477,-0.12196 0.12247,-0.12196 h 0.49351 c 0.06777,0 0.12247,0.0542 0.12247,0.12196 z"
       transform="matrix(0.93110078,0,0,0.93110078,66.05144,-49.989345)" />
    <text
       xml:space="preserve"
       style="font-size:5.15296px;font-family:Zombie;-inkscape-font-specification:Zombie;letter-spacing:0px;fill:#000000;fill-opacity:1;stroke:none;stroke-width:0.112925;stroke-linecap:round;stroke-linejoin:round;stroke-dasharray:none;stroke-opacity:1"
       x="91.02375"
       y="146.62279"
       id="text27"><tspan
         sodipodi:role="line"
         id="tspan27"
         style="font-style:normal;font-variant:normal;font-weight:normal;font-stretch:normal;font-size:5.15296px;font-family:'Londrina Solid';-inkscape-font-specification:'Londrina Solid';stroke-width:0.112925"
         x="91.02375"
         y="146.62279">Fretty Scalarino</tspan></text>
  </g>
</svg>
